<mxfile host="Electron" modified="2023-04-26T05:32:50.058Z" agent="Mozilla/5.0 (Windows NT 10.0; Win64; x64) AppleWebKit/537.36 (KHTML, like Gecko) draw.io/21.2.1 Chrome/112.0.5615.87 Electron/24.1.2 Safari/537.36" etag="yPjTpXiOqliNzYD3y64Q" version="21.2.1" type="device">
  <diagram name="第 1 页" id="ajLXMKe3q7Wkj3jnQQZL">
    <mxGraphModel dx="1276" dy="614" grid="1" gridSize="10" guides="1" tooltips="1" connect="1" arrows="1" fold="1" page="1" pageScale="1" pageWidth="827" pageHeight="1169" math="0" shadow="0">
      <root>
        <mxCell id="0" />
        <mxCell id="1" parent="0" />
        <mxCell id="2tbJd4FF-m_MIAOKHcet-1" value="" style="rounded=0;whiteSpace=wrap;html=1;dashed=1;dashPattern=8 8;" parent="1" vertex="1">
          <mxGeometry x="60" y="50" width="120" height="190" as="geometry" />
        </mxCell>
        <mxCell id="2tbJd4FF-m_MIAOKHcet-2" value="System&lt;br&gt;counter" style="rounded=0;whiteSpace=wrap;html=1;fillColor=#60a917;fontColor=#ffffff;strokeColor=#2D7600;" parent="1" vertex="1">
          <mxGeometry x="67" y="84.5" width="100" height="50" as="geometry" />
        </mxCell>
        <mxCell id="2tbJd4FF-m_MIAOKHcet-5" value="&lt;font style=&quot;font-size: 16px;&quot;&gt;Always-powered&lt;br&gt;domain&lt;/font&gt;" style="text;html=1;strokeColor=none;fillColor=none;align=center;verticalAlign=middle;whiteSpace=wrap;rounded=0;" parent="1" vertex="1">
          <mxGeometry x="55" y="55.5" width="130" height="23" as="geometry" />
        </mxCell>
        <mxCell id="2tbJd4FF-m_MIAOKHcet-8" value="" style="rounded=0;whiteSpace=wrap;html=1;dashed=1;dashPattern=8 8;" parent="1" vertex="1">
          <mxGeometry x="270" y="50" width="150" height="190" as="geometry" />
        </mxCell>
        <mxCell id="2tbJd4FF-m_MIAOKHcet-10" value="" style="rounded=0;whiteSpace=wrap;html=1;dashed=1;dashPattern=8 8;" parent="1" vertex="1">
          <mxGeometry x="490" y="50" width="160" height="190" as="geometry" />
        </mxCell>
        <mxCell id="2tbJd4FF-m_MIAOKHcet-12" value="Power&lt;br&gt;controller" style="rounded=0;whiteSpace=wrap;html=1;" parent="1" vertex="1">
          <mxGeometry x="65" y="163" width="100" height="50" as="geometry" />
        </mxCell>
        <mxCell id="2tbJd4FF-m_MIAOKHcet-13" value="AP1" style="text;html=1;strokeColor=none;fillColor=none;align=center;verticalAlign=middle;whiteSpace=wrap;rounded=0;" parent="1" vertex="1">
          <mxGeometry x="530" y="25.5" width="60" height="30" as="geometry" />
        </mxCell>
        <mxCell id="2tbJd4FF-m_MIAOKHcet-14" value="" style="rounded=0;whiteSpace=wrap;html=1;movable=1;resizable=1;rotatable=1;deletable=1;editable=1;locked=0;connectable=1;" parent="1" vertex="1">
          <mxGeometry x="510" y="71.5" width="130" height="53" as="geometry" />
        </mxCell>
        <mxCell id="2tbJd4FF-m_MIAOKHcet-15" value="GIC" style="text;html=1;strokeColor=none;fillColor=none;align=center;verticalAlign=middle;whiteSpace=wrap;rounded=0;" parent="1" vertex="1">
          <mxGeometry x="535" y="67" width="60" height="30" as="geometry" />
        </mxCell>
        <mxCell id="2tbJd4FF-m_MIAOKHcet-16" value="PPI_0" style="text;html=1;strokeColor=none;fillColor=none;align=center;verticalAlign=middle;whiteSpace=wrap;rounded=0;" parent="1" vertex="1">
          <mxGeometry x="510" y="94.5" width="50" height="30" as="geometry" />
        </mxCell>
        <mxCell id="2tbJd4FF-m_MIAOKHcet-20" value="watch dog&lt;br&gt;timer" style="rounded=0;whiteSpace=wrap;html=1;fillColor=#1ba1e2;fontColor=#ffffff;strokeColor=#006EAF;" parent="1" vertex="1">
          <mxGeometry x="339" y="57" width="70" height="80" as="geometry" />
        </mxCell>
        <mxCell id="-P24fLx9P8_m00I9pemQ-3" value="" style="endArrow=classic;html=1;rounded=0;exitX=1;exitY=0.5;exitDx=0;exitDy=0;entryX=0.004;entryY=0.087;entryDx=0;entryDy=0;entryPerimeter=0;" edge="1" parent="1" source="2tbJd4FF-m_MIAOKHcet-20" target="2tbJd4FF-m_MIAOKHcet-16">
          <mxGeometry width="50" height="50" relative="1" as="geometry">
            <mxPoint x="410" y="117" as="sourcePoint" />
            <mxPoint x="490" y="97" as="targetPoint" />
          </mxGeometry>
        </mxCell>
        <mxCell id="-P24fLx9P8_m00I9pemQ-4" value="" style="rounded=0;whiteSpace=wrap;html=1;movable=1;resizable=1;rotatable=1;deletable=1;editable=1;locked=0;connectable=1;" vertex="1" parent="1">
          <mxGeometry x="510" y="159" width="50" height="61" as="geometry" />
        </mxCell>
        <mxCell id="-P24fLx9P8_m00I9pemQ-5" value="" style="rounded=0;whiteSpace=wrap;html=1;movable=1;resizable=1;rotatable=1;deletable=1;editable=1;locked=0;connectable=1;" vertex="1" parent="1">
          <mxGeometry x="590" y="159" width="50" height="61" as="geometry" />
        </mxCell>
        <mxCell id="-P24fLx9P8_m00I9pemQ-10" value="counter&lt;br&gt;interface" style="rounded=0;whiteSpace=wrap;html=1;fillColor=#60a917;fontColor=#ffffff;strokeColor=#2D7600;" vertex="1" parent="1">
          <mxGeometry x="270" y="60" width="50" height="80" as="geometry" />
        </mxCell>
        <mxCell id="-P24fLx9P8_m00I9pemQ-11" value="" style="endArrow=classic;html=1;rounded=0;entryX=0.026;entryY=0.385;entryDx=0;entryDy=0;entryPerimeter=0;exitX=0.996;exitY=0.138;exitDx=0;exitDy=0;exitPerimeter=0;strokeWidth=2;" edge="1" parent="1" source="2tbJd4FF-m_MIAOKHcet-2" target="-P24fLx9P8_m00I9pemQ-10">
          <mxGeometry width="50" height="50" relative="1" as="geometry">
            <mxPoint x="195" y="97" as="sourcePoint" />
            <mxPoint x="270" y="90" as="targetPoint" />
          </mxGeometry>
        </mxCell>
        <mxCell id="-P24fLx9P8_m00I9pemQ-12" value="System Timer&lt;br&gt;Bus" style="text;html=1;strokeColor=none;fillColor=none;align=center;verticalAlign=middle;whiteSpace=wrap;rounded=0;" vertex="1" parent="1">
          <mxGeometry x="160" y="97" width="120" height="30" as="geometry" />
        </mxCell>
        <mxCell id="-P24fLx9P8_m00I9pemQ-13" value="" style="endArrow=classic;html=1;rounded=0;" edge="1" parent="1">
          <mxGeometry width="50" height="50" relative="1" as="geometry">
            <mxPoint x="320" y="90" as="sourcePoint" />
            <mxPoint x="340" y="90" as="targetPoint" />
          </mxGeometry>
        </mxCell>
        <mxCell id="-P24fLx9P8_m00I9pemQ-14" value="" style="endArrow=classic;html=1;rounded=0;exitX=0.933;exitY=0.211;exitDx=0;exitDy=0;exitPerimeter=0;entryX=-0.002;entryY=0.209;entryDx=0;entryDy=0;entryPerimeter=0;strokeColor=#CC0000;strokeWidth=2;" edge="1" parent="1">
          <mxGeometry width="50" height="50" relative="1" as="geometry">
            <mxPoint x="409.95" y="71.09" as="sourcePoint" />
            <mxPoint x="489.64" y="70.71000000000001" as="targetPoint" />
          </mxGeometry>
        </mxCell>
        <mxCell id="-P24fLx9P8_m00I9pemQ-15" value="RESET" style="text;html=1;strokeColor=none;fillColor=none;align=center;verticalAlign=middle;whiteSpace=wrap;rounded=0;" vertex="1" parent="1">
          <mxGeometry x="414" y="48.5" width="60" height="30" as="geometry" />
        </mxCell>
        <mxCell id="-P24fLx9P8_m00I9pemQ-16" value="IRQ" style="text;html=1;strokeColor=none;fillColor=none;align=center;verticalAlign=middle;whiteSpace=wrap;rounded=0;" vertex="1" parent="1">
          <mxGeometry x="414" y="71.5" width="60" height="30" as="geometry" />
        </mxCell>
        <mxCell id="-P24fLx9P8_m00I9pemQ-18" value="PPI_1" style="text;html=1;strokeColor=none;fillColor=none;align=center;verticalAlign=middle;whiteSpace=wrap;rounded=0;" vertex="1" parent="1">
          <mxGeometry x="585" y="94.5" width="55" height="30" as="geometry" />
        </mxCell>
        <mxCell id="-P24fLx9P8_m00I9pemQ-19" value="" style="endArrow=classic;html=1;rounded=0;entryX=0.25;entryY=0;entryDx=0;entryDy=0;exitX=0.25;exitY=1;exitDx=0;exitDy=0;" edge="1" parent="1" source="2tbJd4FF-m_MIAOKHcet-16" target="-P24fLx9P8_m00I9pemQ-4">
          <mxGeometry width="50" height="50" relative="1" as="geometry">
            <mxPoint x="520" y="130" as="sourcePoint" />
            <mxPoint x="580" y="100" as="targetPoint" />
          </mxGeometry>
        </mxCell>
        <mxCell id="-P24fLx9P8_m00I9pemQ-20" value="" style="endArrow=classic;html=1;rounded=0;entryX=0.25;entryY=0;entryDx=0;entryDy=0;exitX=0.25;exitY=1;exitDx=0;exitDy=0;" edge="1" parent="1">
          <mxGeometry width="50" height="50" relative="1" as="geometry">
            <mxPoint x="545" y="125" as="sourcePoint" />
            <mxPoint x="545" y="159" as="targetPoint" />
          </mxGeometry>
        </mxCell>
        <mxCell id="-P24fLx9P8_m00I9pemQ-21" value="" style="endArrow=classic;html=1;rounded=0;entryX=0.25;entryY=0;entryDx=0;entryDy=0;exitX=0.25;exitY=1;exitDx=0;exitDy=0;" edge="1" parent="1">
          <mxGeometry width="50" height="50" relative="1" as="geometry">
            <mxPoint x="602" y="125" as="sourcePoint" />
            <mxPoint x="602" y="159" as="targetPoint" />
          </mxGeometry>
        </mxCell>
        <mxCell id="-P24fLx9P8_m00I9pemQ-22" value="" style="endArrow=classic;html=1;rounded=0;entryX=0.25;entryY=0;entryDx=0;entryDy=0;exitX=0.25;exitY=1;exitDx=0;exitDy=0;" edge="1" parent="1">
          <mxGeometry width="50" height="50" relative="1" as="geometry">
            <mxPoint x="619" y="125" as="sourcePoint" />
            <mxPoint x="619" y="159" as="targetPoint" />
          </mxGeometry>
        </mxCell>
        <mxCell id="-P24fLx9P8_m00I9pemQ-23" value="nIRQ" style="text;html=1;strokeColor=none;fillColor=none;align=center;verticalAlign=middle;whiteSpace=wrap;rounded=0;" vertex="1" parent="1">
          <mxGeometry x="478" y="124" width="60" height="30" as="geometry" />
        </mxCell>
        <mxCell id="-P24fLx9P8_m00I9pemQ-24" value="nFIQ" style="text;html=1;strokeColor=none;fillColor=none;align=center;verticalAlign=middle;whiteSpace=wrap;rounded=0;" vertex="1" parent="1">
          <mxGeometry x="530" y="124.5" width="60" height="30" as="geometry" />
        </mxCell>
        <mxCell id="-P24fLx9P8_m00I9pemQ-25" value="nIRQ" style="text;html=1;strokeColor=none;fillColor=none;align=center;verticalAlign=middle;whiteSpace=wrap;rounded=0;" vertex="1" parent="1">
          <mxGeometry x="560" y="124" width="60" height="30" as="geometry" />
        </mxCell>
        <mxCell id="-P24fLx9P8_m00I9pemQ-26" value="nFIQ" style="text;html=1;strokeColor=none;fillColor=none;align=center;verticalAlign=middle;whiteSpace=wrap;rounded=0;" vertex="1" parent="1">
          <mxGeometry x="604" y="124" width="60" height="30" as="geometry" />
        </mxCell>
      </root>
    </mxGraphModel>
  </diagram>
</mxfile>
